HIERARCHY
ROOT Hips
{
	OFFSET	0.000000	0.000000	0.000000
	CHANNELS 6 Xposition Yposition Zposition Zrotation Xrotation Yrotation
	JOINT LeftHip
	{
		OFFSET	4.740440	-3.195970	-0.322709
		CHANNELS 3 Zrotation Xrotation Yrotation
		JOINT LeftKnee
		{
			OFFSET	-1.605680	-15.592300	1.005510
			CHANNELS 3 Zrotation Xrotation Yrotation
			JOINT LeftAnkle
			{
				OFFSET	-0.632401	-16.421000	-1.413730
				CHANNELS 3 Zrotation Xrotation Yrotation
				End Site
				{
					OFFSET	0.008423	-2.933000	-1.684880
				}
			}
		}
	}
	JOINT RightHip
	{
		OFFSET	-4.740440	-3.195970	-0.322709
		CHANNELS 3 Zrotation Xrotation Yrotation
		JOINT RightKnee
		{
			OFFSET	1.605680	-15.592300	1.005510
			CHANNELS 3 Zrotation Xrotation Yrotation
			JOINT RightAnkle
			{
				OFFSET	0.632401	-16.421000	-1.413730
				CHANNELS 3 Zrotation Xrotation Yrotation
				End Site
				{
					OFFSET	-0.008423	-2.933000	-1.684880
				}
			}
		}
	}
	JOINT Chest
	{
		OFFSET	0.000000	3.468200	0.078401
		CHANNELS 3 Zrotation Xrotation Yrotation
		JOINT LeftCollar
		{
			OFFSET	3.857650	15.070700	-0.011583
			CHANNELS 3 Zrotation Xrotation Yrotation
			JOINT LeftShoulder
			{
				OFFSET	3.979720	-1.940530	-0.165223
				CHANNELS 3 Zrotation Xrotation Yrotation
				JOINT LeftElbow
				{
					OFFSET	0.615844	-10.986600	-0.673886
					CHANNELS 3 Zrotation Xrotation Yrotation
					JOINT LeftWrist
					{
						OFFSET	0.826843	-10.854500	1.034220
						CHANNELS 3 Zrotation Xrotation Yrotation
						End Site
						{
							OFFSET	-1.679080	-8.456540	0.936217
						}
					}
				}
			}
		}
		JOINT RightCollar
		{
			OFFSET	-3.857650	15.070700	-0.011583
			CHANNELS 3 Zrotation Xrotation Yrotation
			JOINT RightShoulder
			{
				OFFSET	-3.979720	-1.940530	-0.165223
				CHANNELS 3 Zrotation Xrotation Yrotation
				JOINT RightElbow
				{
					OFFSET	-0.615845	-10.986600	-0.673886
					CHANNELS 3 Zrotation Xrotation Yrotation
					JOINT RightWrist
					{
						OFFSET	-0.826843	-10.854500	1.034220
						CHANNELS 3 Zrotation Xrotation Yrotation
						End Site
						{
							OFFSET	1.679080	-8.456540	0.936217
						}
					}
				}
			}
		}
		JOINT Neck
		{
			OFFSET	0.000000	15.101400	0.055730
			CHANNELS 3 Zrotation Xrotation Yrotation
			JOINT Head
			{
				OFFSET	0.000000	4.185120	1.488260
				CHANNELS 3 Zrotation Xrotation Yrotation
				End Site
				{
					OFFSET	0.000000	7.773420	-0.106016
				}
			}
		}
	}
}
MOTION
Frames:     17
Frame Time: 0.016667
-11.550817	36.654926	53.238785	8.919816	-7.072813	6.862308	-4.998455	18.820631	-4.157277	-4.042500	16.600218	5.603021	-0.803169	-8.501081	1.253877	-11.600402	-19.273228	-2.638524	-9.755167	12.759799	1.885534	15.286107	-6.299443	10.354707	-6.304282	9.730513	-9.465105	2.923884	0.144744	-2.486559	11.772587	-0.887391	7.426952	-9.092457	-25.371239	-4.785148	17.857319	1.228594	-8.832265	2.020219	4.068386	-1.209731	-4.729468	5.466548	-4.660096	-0.940651	-1.118944	11.539888	-15.974111	-2.545678	14.876703	7.541318	21.266432	-4.649839	8.648223	23.442665	-2.879098	
-11.714614	36.696239	53.575768	8.983427	-7.380811	7.147663	-4.035809	18.928162	-3.610694	-4.482326	21.074286	6.144485	-1.637747	-9.994577	-0.450432	-11.661966	-19.064123	-0.766131	-8.808437	14.041284	0.328629	15.121814	-5.018806	10.382860	-6.328407	9.990248	-9.650504	3.157298	0.199455	-2.324502	11.469017	-0.357153	7.594551	-9.086823	-26.064539	-4.529728	17.892317	1.134626	-9.111474	2.416725	4.023962	-1.154123	-4.722979	5.377151	-4.892760	-1.013823	-1.095773	11.400329	-16.251713	-2.468384	15.010905	7.879955	21.243753	-4.733960	8.397407	23.445766	-2.878055	
-12.344799	36.724239	54.589409	8.092175	-9.459542	7.886506	-1.579041	20.112608	-3.587308	-5.006759	24.959484	6.859837	-1.319787	-2.610702	-2.002248	-11.206775	-17.013582	-0.976504	-4.710759	16.790564	3.528557	13.034512	-2.223618	6.829935	-4.806252	11.886789	-10.496989	3.320950	0.407807	-1.916588	10.928821	-0.286119	7.503420	-8.890398	-26.077013	-3.657278	18.195557	0.599411	-8.639861	2.503326	4.188441	-0.837576	-4.751858	5.010013	-4.876556	-1.024118	-0.971602	10.975976	-16.537628	-2.565183	14.619123	7.979515	21.011982	-4.389620	8.284173	23.586048	-3.028570	
-12.497079	36.667328	54.886620	7.015772	-10.650094	7.492893	0.748737	19.490446	-3.028708	-6.072081	29.814548	8.005171	-0.889532	-1.849451	-3.552734	-10.279755	-15.979948	-0.721842	-3.010945	17.511513	3.851532	11.921212	-1.524693	6.135355	-3.477363	12.848590	-10.252339	3.406492	0.455644	-1.741775	10.127461	0.384129	7.258878	-8.405654	-26.243587	-3.121778	18.275219	-0.070715	-8.518765	2.601433	4.078030	-0.595959	-4.792227	4.758395	-4.612717	-1.044814	-0.787293	10.575343	-16.657133	-2.362981	14.459468	7.587283	20.939964	-4.201466	8.541983	23.583960	-3.063411	
-13.260942	36.616966	55.905212	5.762758	-11.198267	7.089095	3.267402	17.779551	-2.756941	-7.613912	35.441799	8.298421	1.409526	5.716590	-2.556778	-8.466748	-15.291948	-1.279278	-0.598303	19.466200	4.840596	9.021456	0.174429	5.625253	-2.007375	12.953115	-10.114606	4.134535	0.487910	-1.160929	8.934601	0.783593	6.277910	-8.130223	-25.621120	-2.467352	18.544689	-0.551563	-7.305656	2.472898	3.969420	-0.293447	-4.788916	4.566026	-4.265007	-1.117911	-0.535916	10.377625	-16.115253	-2.263175	14.550385	7.305702	20.845228	-3.776870	8.882377	23.431852	-3.354989	
-13.471762	36.590275	56.278297	4.240449	-11.752279	6.709257	5.558731	15.801895	-2.904169	-9.217437	41.248695	8.269149	1.988552	5.534853	-1.151223	-6.556769	-14.070121	-2.483337	-0.189145	19.038187	6.558631	7.490292	0.581654	5.173991	-0.441076	13.255177	-10.030746	4.391498	0.368370	-0.953644	8.571647	1.045835	5.782945	-8.147093	-24.515062	-2.280076	18.744522	-1.368728	-6.636746	2.472079	3.848119	-0.126534	-4.818843	4.018097	-3.652695	-1.141595	-0.250312	10.296218	-15.826667	-1.799394	14.401082	7.481100	20.798882	-3.617847	8.867534	23.383179	-3.571092	
-14.008029	36.579285	57.156822	2.785392	-12.240264	6.517784	7.578710	13.720487	-2.687328	-9.512218	46.689934	7.132586	3.682078	12.463490	1.152802	-5.052403	-12.597322	-3.464196	2.391743	19.718910	7.040506	3.470298	0.779027	5.309168	0.800243	13.502611	-9.780794	5.162117	0.011110	-0.549398	8.003113	1.499565	4.955631	-8.424865	-23.258192	-2.763215	18.230639	0.019792	-6.527358	2.844354	3.417103	0.168414	-5.049694	3.674588	-3.345870	-1.088586	0.027141	10.355426	-15.028120	-1.776367	15.203200	8.379695	20.687754	-3.571739	9.063384	23.210711	-4.168870	
-14.138356	36.603245	57.607788	1.584499	-12.545534	6.426165	9.002633	12.685464	-2.706941	-9.288143	50.319378	5.446735	3.575397	13.212314	3.009899	-3.733582	-11.318946	-3.800234	3.046184	19.238728	6.999146	2.395800	0.552831	5.528045	1.918335	13.666239	-9.652346	5.366619	-0.051391	-0.572609	7.872836	1.686644	4.708035	-8.820090	-22.023151	-3.689607	17.518702	0.512343	-7.083272	3.078753	3.293182	0.426138	-5.349487	2.815347	-2.858732	-1.023710	0.207197	10.352738	-14.600009	-1.567124	15.569733	8.564072	20.720238	-3.606677	9.848504	22.992964	-4.588581	
-14.629036	36.604187	58.415874	0.592832	-12.653224	6.263269	10.250850	8.906338	-2.464914	-10.310653	56.137085	4.667403	5.029011	18.734173	5.779956	-2.495769	-10.242732	-3.563876	4.979336	19.789541	5.734340	-0.174126	-0.412279	6.264783	2.812380	13.680958	-8.932560	5.582913	-0.059912	-0.537255	7.734769	1.642300	3.976166	-9.217278	-20.778547	-4.818971	16.337395	1.002770	-8.236073	3.371548	3.236574	0.314132	-5.803198	1.806668	-2.388897	-0.916026	0.172602	10.279152	-14.326846	-1.382292	15.948194	8.743548	20.714317	-4.095068	10.378815	22.867376	-4.891215	
-14.819361	36.698532	58.898048	0.218209	-12.515398	6.102092	10.596350	7.388211	-2.304083	-10.814189	58.937416	4.297526	5.127613	18.294641	7.445318	-1.799310	-9.272128	-3.026963	5.421039	19.101048	5.088298	-0.823406	-0.832634	6.411448	3.168143	13.503995	-8.611211	5.527792	-0.021389	-0.490705	7.746424	1.638352	3.757478	-9.413605	-20.195932	-5.425202	14.729053	1.899078	-10.393986	3.433186	3.230519	0.399637	-6.031432	1.278788	-2.169596	-0.908827	0.069569	10.255156	-14.239659	-1.330178	16.101862	8.682552	20.715733	-4.128394	10.601185	22.924261	-5.096935	
-15.227482	36.754753	59.780800	-0.400927	-11.393706	5.262731	10.557971	2.409296	-0.945933	-11.087092	63.460209	5.104863	6.166483	15.153980	9.193101	-0.851639	-9.208724	-2.005904	6.778201	19.138695	4.637630	-2.481882	-1.895189	6.204885	3.513435	12.171152	-7.324224	5.394701	0.358585	-0.186353	7.674088	1.777976	3.325386	-9.880144	-18.694517	-7.163188	13.593740	1.724236	-11.509240	3.555867	3.220607	0.845159	-6.758512	-0.179596	-1.653261	-0.792844	-0.477605	10.228912	-14.282913	-1.319423	16.433287	8.475499	21.034357	-4.029057	11.128965	22.845608	-5.695873	
-15.386556	36.880219	60.311726	-0.544995	-11.096271	4.887245	10.483582	0.939229	-0.269142	-9.725731	64.290215	4.746196	6.594030	14.097319	8.507452	-0.382457	-8.135437	-1.298355	7.071707	18.088814	4.623665	-2.999094	-2.212406	5.890818	3.646336	11.659026	-6.690137	5.265018	0.623784	-0.193576	7.549387	1.854427	3.194818	-9.913716	-18.269817	-7.649171	12.370404	2.544128	-13.279505	3.427927	3.265264	0.844047	-6.940705	-0.605123	-1.518689	-0.925990	-1.660644	10.647067	-14.030133	-0.414208	16.304695	8.343508	21.271793	-4.171187	11.242163	23.005682	-5.945075	
-15.665547	36.944443	61.164455	-0.973006	-11.265663	3.530529	10.340138	-2.157700	1.911159	-6.667483	66.595367	2.799541	8.233436	10.902431	7.218477	0.489848	-6.538276	0.354962	7.988138	17.723270	4.892598	-4.093014	-3.039912	5.022100	4.046688	11.665056	-5.130092	5.033682	0.968300	0.455219	6.948750	2.261378	2.799419	-9.777746	-17.208090	-8.723948	11.878587	2.311430	-14.038562	2.962002	2.815517	1.301075	-7.349124	-1.779982	-1.343038	-0.683287	-1.733610	10.489522	-14.580773	-1.543891	16.443951	7.729742	21.531691	-3.799452	11.780975	23.121582	-6.580729	
-15.747159	36.990925	61.500767	-1.091674	-11.425024	3.083887	10.313046	-3.030014	2.610241	-5.060342	65.755699	1.241073	8.267096	11.312105	6.757478	0.802014	-5.634351	0.959945	8.133002	17.308418	4.921362	-4.358383	-3.298783	4.807419	4.185009	11.741130	-4.557702	4.940900	1.097105	0.612825	6.704680	2.462971	2.722648	-9.715603	-16.940172	-8.947304	11.597701	3.081606	-14.511429	2.701271	2.656862	1.367413	-7.389868	-2.108179	-1.320646	-0.662175	-2.193200	10.541632	-14.622055	-1.606956	16.434116	7.482565	21.614393	-3.720442	11.884535	23.369053	-6.902854	
-15.973600	37.103203	62.595451	-1.398468	-11.702074	1.871434	10.342780	-5.695710	4.309035	-3.353438	66.278854	-0.506408	8.034248	8.661964	5.690061	1.561538	-3.071626	2.373085	8.492087	16.348396	5.023818	-5.157557	-4.282385	4.437017	4.466764	11.817504	-2.839863	4.742352	1.455162	1.112041	5.935811	3.189541	2.607424	-9.508343	-16.310221	-9.269895	12.049673	2.737579	-14.642701	1.926041	2.171049	1.493085	-7.451481	-2.950308	-1.311985	-0.518767	-4.057856	10.489376	-14.550419	-1.767201	16.512320	6.812221	21.698681	-3.811947	12.404836	23.711941	-7.368186	
-16.062685	37.120811	63.009438	-1.478402	-11.671475	1.564995	10.356552	-6.675143	4.624423	-3.335942	65.725365	-0.599711	7.340943	3.849712	4.480978	1.755623	-2.340641	2.629570	8.698397	16.224253	5.202976	-5.678491	-4.730335	4.258730	4.522975	11.714390	-2.340942	4.685674	1.595574	1.280740	5.694561	3.473072	2.618914	-9.455098	-16.196791	-9.273358	12.274934	2.828945	-14.531994	1.677507	2.043508	1.534868	-7.505445	-3.191263	-1.299472	-0.406771	-4.827817	10.421709	-14.480810	-1.844098	16.510042	6.599972	21.711706	-3.899128	12.510072	23.859470	-7.475101	
-16.160368	37.221165	63.836945	-1.813618	-11.733908	0.734446	10.514895	-9.253979	5.062120	-4.103592	62.881023	0.258763	6.779981	4.570793	3.644359	2.332985	-0.054718	3.007165	8.561335	14.749408	6.115639	-6.274610	-5.194932	3.922688	4.673337	11.660254	-0.992655	4.607204	1.994525	1.818296	5.031706	4.386813	2.893898	-9.322170	-15.993612	-9.273744	13.006546	2.934529	-13.726836	1.016526	1.709351	1.753947	-7.752969	-3.836315	-1.186115	0.114556	-7.500727	10.230085	-14.338905	-2.148431	16.134098	5.673061	21.666023	-3.836766	13.210352	24.250776	-7.894753	
